<svg width="28" height="24" viewBox="0 0 28 24" fill="none" xmlns="http://www.w3.org/2000/svg">
<g clip-path="url(#clip0_809_1352)">
<path fill-rule="evenodd" clip-rule="evenodd" d="M0.5 12C0.5 11.1716 1.17157 10.5 2 10.5L26 10.5C26.8284 10.5 27.5 11.1716 27.5 12C27.5 12.8284 26.8284 13.5 26 13.5L2 13.5C1.17157 13.5 0.5 12.8284 0.5 12Z" fill="#ECE7E1"/>
<path fill-rule="evenodd" clip-rule="evenodd" d="M13.8894 0.991014C14.4467 0.378027 15.3954 0.332852 16.0083 0.890113L27.0083 10.8901C27.6213 11.4474 27.6665 12.396 27.1092 13.009C26.552 13.622 25.6033 13.6672 24.9903 13.1099L13.9903 3.10993C13.3773 2.55267 13.3322 1.604 13.8894 0.991014Z" fill="#ECE7E1"/>
<path fill-rule="evenodd" clip-rule="evenodd" d="M13.8899 23.0091C13.3326 22.3961 13.3778 21.4474 13.9908 20.8902L24.9908 10.8902C25.6038 10.3329 26.5524 10.3781 27.1097 10.9911C27.6669 11.604 27.6218 12.5527 27.0088 13.11L16.0088 23.11C15.3958 23.6672 14.4471 23.6221 13.8899 23.0091Z" fill="#ECE7E1"/>
</g>
<defs>
<clipPath id="clip0_809_1352">
<rect width="28" height="24" fill="white"/>
</clipPath>
</defs>
</svg>
